<svg width="172" height="67" viewBox="0 0 172 67" fill="none" xmlns="http://www.w3.org/2000/svg">
<path d="M10.4379 12.6078H8V33.7296H10.4379V12.6078Z" fill="#1A73E8"/>
<path d="M14.903 33.7296H17.3409V17.8883H14.903V33.7296ZM16.1426 15.248C17.093 15.248 17.8781 14.5055 17.8781 13.5979C17.8781 12.6903 17.093 11.9478 16.1426 11.9478C15.1923 11.9478 14.4072 12.6903 14.4072 13.5979C14.4072 14.5055 15.1923 15.248 16.1426 15.248Z" fill="#1A73E8"/>
<path d="M28.2107 40.0002C32.0121 40.0002 35.0698 38.2675 35.0698 34.1834V17.8883H32.7146V20.4047H32.4667C31.9295 19.5797 30.9378 17.682 27.8388 17.682C23.8308 17.682 21.0623 20.8585 21.0623 25.7264C21.0623 30.6769 23.9547 33.4821 27.7975 33.4821C30.8965 33.4821 31.8882 31.667 32.4253 30.8006H32.6319V34.0184C32.6319 36.6586 30.7725 37.855 28.2107 37.855C25.3286 37.855 24.3163 36.3389 23.6655 35.4623L21.7234 36.8237C22.7151 38.4841 24.6675 40.0002 28.2107 40.0002ZM28.128 31.2957C25.0704 31.2957 23.5002 28.9855 23.5002 25.6852C23.5002 22.4674 25.029 19.8684 28.128 19.8684C31.1031 19.8684 32.6733 22.2611 32.6733 25.6852C32.6733 29.1917 31.0618 31.2957 28.128 31.2957Z" fill="#1A73E8"/>
<path d="M41.9703 24.2001C41.9703 21.4361 43.7367 19.8684 46.1436 19.8684C48.4369 19.8684 49.8211 21.3123 49.8211 23.8288V33.7296H52.259V23.6638C52.259 19.59 50.0897 17.682 46.846 17.682C44.3462 17.682 42.9206 18.7237 42.1769 20.3635H41.9703V12.6078H39.5324V33.7296H41.9703V24.2001Z" fill="#1A73E8"/>
<path d="M63.6194 17.8883H60.2312V14.0929H57.7933V17.8883H55.3967V19.9509H57.7933V29.8518C57.7933 32.6158 60.0246 33.9359 62.0906 33.9359C62.9996 33.9359 63.5781 33.7709 63.9087 33.6471L63.4128 31.4607C63.2062 31.5019 62.8757 31.5845 62.3385 31.5845C61.2642 31.5845 60.2312 31.2544 60.2312 29.1917V19.9509H63.6194V17.8883Z" fill="#1A73E8"/>
<path d="M74.8505 33.3996C78.0735 33.3996 80.4287 31.7907 81.1725 29.398L78.8172 28.738C78.1974 30.3881 76.7616 31.2132 74.8505 31.2132C71.9891 31.2132 70.0161 29.3671 69.9024 25.974H81.4204V24.9426C81.4204 19.0434 77.9082 17.0219 74.6026 17.0219C70.3053 17.0219 67.4542 20.4047 67.4542 25.2727C67.4542 30.1406 70.264 33.3996 74.8505 33.3996ZM69.9024 23.87C70.0677 21.4051 71.8135 19.2084 74.6026 19.2084C77.2471 19.2084 78.9412 21.1886 78.9412 23.87H69.9024Z" fill="#00459F"/>
<path d="M91.5748 33.3996C95.087 33.3996 97.4009 31.2544 97.8141 28.4492H95.3762C94.9217 30.1818 93.4755 31.2132 91.5748 31.2132C88.6824 31.2132 86.823 28.8205 86.823 25.1489C86.823 21.5598 88.7237 19.2084 91.5748 19.2084C93.7234 19.2084 95.0044 20.5285 95.3762 21.9724H97.8141C97.4009 19.0021 94.8804 17.0219 91.5335 17.0219C87.2362 17.0219 84.3851 20.4047 84.3851 25.2314C84.3851 29.9756 87.1122 33.3996 91.5748 33.3996Z" fill="#00459F"/>
<path d="M103.816 23.54C103.816 20.776 105.582 19.2084 107.989 19.2084C110.282 19.2084 111.667 20.6523 111.667 23.1687V33.0696H114.105V23.0037C114.105 18.9299 111.935 17.0219 108.692 17.0219C106.192 17.0219 104.766 18.0636 104.022 19.7034H103.816V11.9478H101.378V33.0696H103.816V23.54Z" fill="#00459F"/>
<path d="M125.01 33.3996C129.308 33.3996 132.2 30.1406 132.2 25.2314C132.2 20.281 129.308 17.0219 125.01 17.0219C120.713 17.0219 117.821 20.281 117.821 25.2314C117.821 30.1406 120.713 33.3996 125.01 33.3996ZM125.01 31.2132C121.746 31.2132 120.259 28.4079 120.259 25.2314C120.259 22.0549 121.746 19.2084 125.01 19.2084C128.275 19.2084 129.762 22.0549 129.762 25.2314C129.762 28.4079 128.275 31.2132 125.01 31.2132Z" fill="#00459F"/>
<path d="M150.757 34.003C150.67 34.1235 150.495 34.0193 150.551 33.8771C151.806 31.0108 154.226 25.2131 153.733 23.6444C153.262 22.0455 150.758 19.9821 149.52 19.041C149.4 18.9543 149.504 18.7776 149.645 18.8343C151.078 19.3443 154.11 20.257 155.674 19.7876C157.29 19.3097 160.988 13.8877 162.636 11.3293C162.723 11.2087 162.898 11.3129 162.842 11.4552C161.63 14.2612 159.154 20.3608 159.651 21.9555C160.117 23.5284 162.562 25.5485 163.774 26.4938C163.894 26.5805 163.79 26.7571 163.648 26.7005C162.186 26.1688 159.094 25.2127 157.504 25.6863C155.918 26.1859 152.423 31.3885 150.757 34.003Z" fill="#69A8FA"/>
<path d="M142.471 37.8026C142.358 37.9607 142.127 37.8241 142.201 37.6375C143.847 33.8788 147.02 26.276 146.374 24.2188C145.756 22.1222 142.472 19.4162 140.849 18.1822C140.692 18.0685 140.828 17.8368 141.013 17.9111C142.892 18.5799 146.868 19.7768 148.919 19.1612C151.038 18.5346 155.887 11.4244 158.049 8.06936C158.163 7.91125 158.393 8.04791 158.319 8.23446C156.764 11.9086 153.511 19.8734 154.134 22.0041C154.746 24.0667 157.952 26.7158 159.541 27.9554C159.698 28.0691 159.562 28.3008 159.376 28.2265C157.459 27.5293 153.404 26.2755 151.319 26.8966C149.273 27.5461 144.69 34.3685 142.471 37.8026Z" fill="#1A73E8"/>
<path d="M69.8222 55V43.3636H73.8904C74.701 43.3636 75.3695 43.5038 75.896 43.7841C76.4226 44.0606 76.8146 44.4337 77.0722 44.9034C77.3298 45.3693 77.4585 45.8864 77.4585 46.4545C77.4585 46.9545 77.3695 47.3674 77.1915 47.6932C77.0173 48.0189 76.7862 48.2765 76.4983 48.4659C76.2142 48.6553 75.9055 48.7955 75.5722 48.8864V49C75.9282 49.0227 76.2862 49.1477 76.646 49.375C77.0059 49.6023 77.307 49.928 77.5494 50.3523C77.7919 50.7765 77.9131 51.2955 77.9131 51.9091C77.9131 52.4924 77.7805 53.017 77.5154 53.483C77.2502 53.9489 76.8316 54.3182 76.2597 54.5909C75.6877 54.8636 74.9434 55 74.0267 55H69.8222ZM71.2313 53.75H74.0267C74.9472 53.75 75.6006 53.572 75.9869 53.2159C76.3771 52.8561 76.5722 52.4205 76.5722 51.9091C76.5722 51.5152 76.4718 51.1515 76.271 50.8182C76.0703 50.4811 75.7843 50.2121 75.4131 50.0114C75.0419 49.8068 74.6025 49.7045 74.0949 49.7045H71.2313V53.75ZM71.2313 48.4773H73.8449C74.2691 48.4773 74.6517 48.3939 74.9926 48.2273C75.3373 48.0606 75.6101 47.8258 75.8108 47.5227C76.0154 47.2197 76.1176 46.8636 76.1176 46.4545C76.1176 45.9432 75.9396 45.5095 75.5835 45.1534C75.2275 44.7936 74.6631 44.6136 73.8904 44.6136H71.2313V48.4773ZM83.7057 55.1818C82.8648 55.1818 82.1394 54.9962 81.5296 54.625C80.9235 54.25 80.4557 53.7273 80.1262 53.0568C79.8004 52.3826 79.6375 51.5985 79.6375 50.7045C79.6375 49.8106 79.8004 49.0227 80.1262 48.3409C80.4557 47.6553 80.914 47.1212 81.5012 46.7386C82.0921 46.3523 82.7815 46.1591 83.5693 46.1591C84.0239 46.1591 84.4727 46.2348 84.9159 46.3864C85.3591 46.5379 85.7625 46.7841 86.1262 47.125C86.4898 47.4621 86.7796 47.9091 86.9955 48.4659C87.2114 49.0227 87.3193 49.7083 87.3193 50.5227V51.0909H80.5921V49.9318H85.9557C85.9557 49.4394 85.8572 49 85.6602 48.6136C85.4671 48.2273 85.1905 47.9223 84.8307 47.6989C84.4746 47.4754 84.0542 47.3636 83.5693 47.3636C83.0352 47.3636 82.5731 47.4962 82.183 47.7614C81.7966 48.0227 81.4993 48.3636 81.2909 48.7841C81.0826 49.2045 80.9784 49.6553 80.9784 50.1364V50.9091C80.9784 51.5682 81.0921 52.1269 81.3193 52.5852C81.5504 53.0398 81.8705 53.3864 82.2796 53.625C82.6887 53.8598 83.164 53.9773 83.7057 53.9773C84.058 53.9773 84.3762 53.928 84.6602 53.8295C84.9481 53.7273 85.1962 53.5758 85.4046 53.375C85.6129 53.1705 85.7739 52.9167 85.8875 52.6136L87.183 52.9773C87.0466 53.4167 86.8174 53.803 86.4955 54.1364C86.1735 54.4659 85.7758 54.7235 85.3023 54.9091C84.8288 55.0909 84.2966 55.1818 83.7057 55.1818ZM93.1546 46.2727V47.4091H88.6318V46.2727H93.1546ZM89.95 44.1818H91.2909V52.5C91.2909 52.8788 91.3459 53.1629 91.4557 53.3523C91.5693 53.5379 91.7133 53.6629 91.8875 53.7273C92.0655 53.7879 92.253 53.8182 92.45 53.8182C92.5977 53.8182 92.719 53.8106 92.8137 53.7955C92.9084 53.7765 92.9841 53.7614 93.0409 53.75L93.3137 54.9545C93.2227 54.9886 93.0959 55.0227 92.933 55.0568C92.7701 55.0947 92.5637 55.1136 92.3137 55.1136C91.9349 55.1136 91.5637 55.0322 91.2 54.8693C90.8402 54.7064 90.5409 54.4583 90.3023 54.125C90.0674 53.7917 89.95 53.3712 89.95 52.8636V44.1818ZM97.7398 55.2045C97.1868 55.2045 96.6849 55.1004 96.2341 54.892C95.7834 54.6799 95.4254 54.375 95.1602 53.9773C94.8951 53.5758 94.7625 53.0909 94.7625 52.5227C94.7625 52.0227 94.861 51.6174 95.058 51.3068C95.2549 50.9924 95.5182 50.7462 95.8477 50.5682C96.1773 50.3902 96.5409 50.2576 96.9387 50.1705C97.3402 50.0795 97.7436 50.0076 98.1489 49.9545C98.6792 49.8864 99.1091 49.8352 99.4387 49.8011C99.772 49.7633 100.014 49.7008 100.166 49.6136C100.321 49.5265 100.399 49.375 100.399 49.1591V49.1136C100.399 48.553 100.245 48.1174 99.9387 47.8068C99.6356 47.4962 99.1754 47.3409 98.558 47.3409C97.9178 47.3409 97.4159 47.4811 97.0523 47.7614C96.6887 48.0417 96.433 48.3409 96.2852 48.6591L95.0125 48.2045C95.2398 47.6742 95.5428 47.2614 95.9216 46.9659C96.3042 46.6667 96.7209 46.4583 97.1716 46.3409C97.6262 46.2197 98.0731 46.1591 98.5125 46.1591C98.7928 46.1591 99.1148 46.1932 99.4784 46.2614C99.8459 46.3258 100.2 46.4602 100.541 46.6648C100.886 46.8693 101.172 47.178 101.399 47.5909C101.626 48.0038 101.74 48.5568 101.74 49.25V55H100.399V53.8182H100.331C100.24 54.0076 100.088 54.2102 99.8762 54.4261C99.664 54.642 99.3818 54.8258 99.0296 54.9773C98.6773 55.1288 98.2474 55.2045 97.7398 55.2045ZM97.9443 54C98.4746 54 98.9216 53.8958 99.2852 53.6875C99.6527 53.4792 99.9292 53.2102 100.115 52.8807C100.304 52.5511 100.399 52.2045 100.399 51.8409V50.6136C100.342 50.6818 100.217 50.7443 100.024 50.8011C99.8345 50.8542 99.6148 50.9015 99.3648 50.9432C99.1186 50.9811 98.878 51.0152 98.6432 51.0455C98.4121 51.072 98.2246 51.0947 98.0807 51.1136C97.7322 51.1591 97.4065 51.233 97.1034 51.3352C96.8042 51.4337 96.5618 51.5833 96.3762 51.7841C96.1943 51.9811 96.1034 52.25 96.1034 52.5909C96.1034 53.0568 96.2758 53.4091 96.6205 53.6477C96.969 53.8826 97.4102 54 97.9443 54Z" fill="#1A73E8"/>
</svg>
